Coordinates
version=1
nRows=15
nColumns=34
inDegrees=yes

Units are S.I. units (second, meters, Newtons, ...)
If the header above contains a line with 'inDegrees', this indicates whether rotational values are in degrees (yes) or radians (no).

endheader
time	pelvis_tilt	pelvis_list	pelvis_rotation	pelvis_tx	pelvis_ty	pelvis_tz	hip_flexion_r	hip_adduction_r	hip_rotation_r	knee_angle_r	ankle_angle_r	subtalar_angle_r	mtp_angle_r	hip_flexion_l	hip_adduction_l	hip_rotation_l	knee_angle_l	ankle_angle_l	subtalar_angle_l	mtp_angle_l	lumbar_extension	lumbar_bending	lumbar_rotation	arm_flex_r	arm_add_r	arm_rot_r	elbow_flex_r	pro_sup_r	arm_flex_l	arm_add_l	arm_rot_l	elbow_flex_l	pro_sup_l
     11.93333330	     12.29413858	     -9.36680889	      4.46827861	      0.08497751	      0.96584493	     -0.19555649	     31.39879122	      2.25896532	     -6.99092299	      4.62225847	      4.73051544	      2.82419948	      0.00000000	      0.47573050	     -7.83490062	      1.04597934	     26.61519156	     14.56471840	     -2.03652842	      0.00000000	    -23.99081338	      8.81158827	     -0.89499377	     89.61380092	      0.03535900	     64.51111649	    122.40419515	    101.16099954	     99.33346785	     -1.45343142	     82.87042687	    126.01820466	     92.23021226
     11.95000000	     12.19054571	     -9.30296284	      4.08252689	      0.08374001	      0.95953940	     -0.19518435	     31.84048223	      2.28355618	     -6.92639109	      5.04608359	      4.96395407	      2.70910764	      0.00000000	      1.02644302	     -7.74199439	      0.57110000	     27.53747854	     14.93451137	     -2.18129601	      0.00000000	    -23.75223537	      8.68070463	     -1.66234739	     89.52220832	      0.68106114	     63.96025501	    121.22121169	    100.79588185	     99.13194952	     -2.54103444	     82.70308684	    125.50670504	     91.93901861
     11.96666670	     12.20675007	     -9.07742728	      4.01198731	      0.07969259	      0.95698243	     -0.19498201	     32.19736985	      2.10840676	     -7.00411666	      5.45506461	      4.79389573	      2.71850351	      0.00000000	      1.65067201	     -7.48640922	      0.39400274	     28.57948588	     15.23072657	     -2.55436268	      0.00000000	    -24.11077750	      8.49823785	     -1.24363690	     90.05044059	      0.26264446	     63.87452418	    120.49469767	    100.72229652	     99.32385015	     -2.76875542	     82.57042479	    125.43058003	     91.86472517
     11.98333330	     12.10786666	     -8.81360519	      3.58595637	      0.08129478	      0.95415845	     -0.19334028	     32.53877939	      2.14089137	     -6.90185856	      5.81115494	      4.86317176	      2.74510386	      0.00000000	      2.07166945	     -7.14606539	      0.35943865	     29.66657018	     15.75270597	     -2.86236924	      0.00000000	    -24.08205090	      8.05298737	     -0.71643796	     90.30517352	      0.35690025	     64.11792794	    119.80963532	    100.61254332	     99.29949042	     -3.10871875	     82.71888213	    124.77215865	     91.74154603
     12.00000000	     12.32470219	     -8.70074901	      3.60060670	      0.07873193	      0.95329251	     -0.19437798	     32.42880741	      2.10619034	     -6.74546430	      6.02414528	      4.89738944	      2.81023786	      0.00000000	      2.61612636	     -7.02879962	      0.19574304	     30.65694013	     15.53263667	     -2.95361482	      0.00000000	    -24.45107260	      7.92430069	     -0.79863260	     90.12714777	      0.13881482	     64.30012308	    119.67688994	    100.59360920	     99.08814471	     -3.22167189	     82.84100651	    124.75907068	     91.71906559
     12.01666670	     11.87184800	     -8.43760438	      3.86143846	      0.08384320	      0.95289640	     -0.19574566	     32.55070687	      1.72408519	     -6.12881121	      6.24675503	      5.72630162	      2.84242716	      0.00000000	      3.45401867	     -6.59911663	      0.90753418	     30.96523780	     15.70538698	     -4.57824203	      0.00000000	    -23.99770660	      7.86467695	      0.05450816	     90.62267188	     -0.21869473	     65.09986882	    119.68395845	    100.27619890	     98.68179931	     -2.11005762	     82.42861313	    125.39944729	     91.41574795
     12.03333330	     11.85956672	     -8.33048550	      3.86040192	      0.08143375	      0.94871872	     -0.19642273	     32.31111703	      1.50632913	     -5.42964705	      6.51390621	      6.41264311	      2.65905227	      0.00000000	      4.07374524	     -6.24958172	      1.50698244	     31.67403185	     18.00247995	     -4.84983043	      0.00000000	    -24.18982034	      7.84124035	      0.38123221	     90.87324518	     -0.38135810	     65.06125169	    120.17869797	    100.04509057	     98.61187578	     -1.66622596	     82.18530213	    124.71736524	     91.17518752
     12.05000000	     11.77655502	     -7.89677222	      3.26718720	      0.07875674	      0.94309651	     -0.19522058	     32.40994339	      1.46758095	     -5.17689124	      6.28983194	      6.61786202	      2.75484479	      0.00000000	      4.33557735	     -5.61998788	      1.31013658	     32.61096849	     18.06162736	     -5.30000307	      0.00000000	    -24.14131880	      7.13307812	      0.51504075	     90.30731402	     -0.90698209	     65.56815102	    120.02473026	     99.98838680	     98.33599519	     -2.26481280	     82.44877953	    125.05115448	     91.10497546
     12.06666670	     10.98906084	     -7.68808721	      2.87980806	      0.07927064	      0.93624369	     -0.19532500	     33.40909668	      1.45942100	     -4.45619948	      6.47433634	      6.76550944	      2.32057439	      0.00000000	      5.90576178	     -5.08287018	      1.69176628	     34.22051431	     19.50206378	     -5.40492981	      0.00000000	    -23.34265463	      6.87588290	      0.10078009	     90.12801196	     -0.81660213	     65.79234720	    120.08102995	     99.69288959	     98.38530476	     -2.79447639	     82.51659423	    125.61609142	     90.83843829
     12.08333330	     10.85180264	     -7.34942969	      2.67141020	      0.07562199	      0.93274058	     -0.19619414	     33.81376811	      1.29121980	     -4.00768503	      6.73221828	      6.59700320	      1.93494531	      0.00000000	      7.07945358	     -4.56091562	      2.01655787	     35.66686320	     21.91735648	     -5.88941202	      0.00000000	    -23.37656046	      6.72500034	      0.10685685	     90.57628939	     -0.72221553	     65.88436711	    119.81244741	     99.47951054	     98.78675264	     -2.99528083	     83.07244318	    124.60057535	     90.69460278
     12.10000000	     10.15294577	     -7.37655937	      2.67759629	      0.07536906	      0.92880648	     -0.19715555	     34.58134246	      1.28437889	     -3.39201753	      7.05995553	      6.44033841	      1.52720426	      0.00000000	      8.80615144	     -4.43589359	      2.35686203	     37.79842523	     23.14583594	     -6.83159153	      0.00000000	    -22.53067712	      6.73477743	     -0.82694009	     89.91726017	     -0.99051502	     65.38899110	    120.34258320	     99.09900751	     98.77635002	     -3.59744397	     83.29304976	    124.17502149	     90.37180162
     12.11666670	     10.04497567	     -7.29936524	      2.36679830	      0.07594133	      0.92351206	     -0.19668946	     34.55911370	      1.50215537	     -3.11151451	      6.90052889	      6.22446372	      1.53277968	      0.00000000	      9.47927823	     -4.30453546	      2.07775597	     39.43762386	     23.80658787	     -7.39010368	      0.00000000	    -22.80808709	      6.86600151	     -1.06651113	     90.09432232	     -0.76738359	     65.35411641	    119.84997722	     98.97816621	     99.36504377	     -3.63702244	     83.28473023	    123.35354098	     90.26552591
     12.13333330	      9.90324477	     -7.43158604	      2.48553715	      0.07578656	      0.92202239	     -0.19721417	     34.47223895	      1.71746689	     -2.96760731	      7.01589526	      6.05953150	      1.14864530	      0.00000000	     10.33709646	     -4.37875293	      2.25870036	     40.87599849	     24.49919619	     -7.43786262	      0.00000000	    -23.02833504	      7.29019029	     -1.43790171	     90.24202327	     -0.35986453	     65.40156911	    119.67912711	     98.84331999	     99.75402114	     -3.45822912	     83.42005676	    122.56969588	     90.15435986
     12.15000000	      9.82619063	     -6.94362952	      2.80372373	      0.07574260	      0.92100107	     -0.19777497	     34.25246954	      1.28245823	     -2.06613942	      6.82240994	      5.28603786	     -0.14252573	      0.00000000	     11.33043746	     -3.89775711	      2.75074195	     40.91476765	     29.95127929	     -6.46713844	      0.00000000	    -22.86631909	      6.81623735	     -2.11045850	     89.26490458	     -0.48581689	     65.01761273	    119.29553644	     98.34402491	     99.39588453	     -3.33548100	     83.66522902	    122.78439454	     89.74771129
     12.16666670	      9.81248461	     -6.72578729	      2.81631427	      0.07335413	      0.91689854	     -0.19710485	     33.85212421	      1.24871512	     -2.14741330	      6.64923724	      5.39357840	     -0.21341841	      0.00000000	     11.61323847	     -3.77818906	      2.49766190	     42.08746562	     29.92685009	     -6.65194692	      0.00000000	    -22.98554605	      6.65990129	     -1.96831847	     89.09986322	     -0.35096766	     65.12043938	    119.28300356	     98.33424582	     99.31508165	     -3.26839209	     83.70579022	    122.85300977	     89.73741214
